<?xml version="1.0" standalone="no"?>
<!DOCTYPE svg PUBLIC "-//W3C//DTD SVG 20010904//EN"
 "http://www.w3.org/TR/2001/REC-SVG-20010904/DTD/svg10.dtd">
<svg version="1.0" xmlns="http://www.w3.org/2000/svg"
 width="300.000000pt" height="300.000000pt" viewBox="0 0 300.000000 300.000000"
 preserveAspectRatio="xMidYMid meet">
<metadata>
Created by potrace 1.10, written by Peter Selinger 2001-2011
</metadata>
<g transform="translate(0.000000,300.000000) scale(0.100000,-0.100000)"
fill="#000000" stroke="none">
<path d="M2330 2593 c-368 -39 -635 -214 -785 -513 -41 -80 -85 -202 -85 -232
0 -41 19 -13 50 75 74 211 198 379 354 483 101 67 282 132 412 149 132 16 376
11 443 -11 8 -3 -5 -20 -37 -49 -95 -85 -141 -157 -304 -475 -47 -91 -96 -183
-109 -205 -115 -194 -279 -288 -460 -265 -76 10 -99 18 -99 35 0 17 137 231
208 325 31 41 94 119 139 173 80 95 94 117 74 117 -15 0 -148 -156 -244 -285
-111 -150 -231 -341 -222 -354 12 -20 120 -44 195 -44 98 -1 188 30 269 92
102 78 170 180 321 481 128 257 224 381 337 439 l56 28 -59 11 c-141 27 -334
38 -454 25z"/>
<path d="M2069 2202 c-50 -33 -168 -144 -231 -219 -34 -41 -68 -80 -73 -87
-81 -90 -207 -276 -200 -294 3 -8 -29 -68 -75 -138 l-80 -123 0 -383 0 -383
-540 0 -540 0 0 538 0 537 518 0 517 1 31 42 c17 23 34 56 38 72 4 17 9 38 12
48 5 16 -30 17 -643 17 l-648 0 0 -715 0 -715 713 0 712 0 0 603 0 602 105
139 c101 135 265 329 290 344 7 4 43 35 80 70 64 59 71 81 14 44z m-685 -418
c24 -9 20 -28 -13 -63 l-29 -31 -501 0 -502 0 -24 -25 -25 -24 0 -525 0 -525
23 -26 22 -25 534 -1 c510 0 535 1 553 19 18 18 19 42 21 404 l2 385 45 58 45
58 3 -499 c1 -274 0 -505 -3 -512 -3 -9 -146 -12 -664 -12 -619 0 -661 1 -670
18 -12 23 -12 1291 1 1315 8 16 46 17 588 17 318 0 585 -3 594 -6z"/>
<path d="M1322 1593 c-79 -101 -312 -482 -312 -511 0 -20 -9 -14 -73 44 -80
73 -298 217 -429 284 l-103 53 59 -64 c292 -315 425 -473 509 -606 29 -45 54
-82 57 -82 3 -1 18 25 35 57 16 31 94 164 172 294 136 226 153 258 136 258 -8
0 -63 -77 -87 -120 -6 -10 -52 -88 -102 -172 -50 -84 -103 -174 -118 -200 -14
-26 -30 -49 -35 -52 -5 -4 -22 14 -38 39 -15 25 -31 45 -35 45 -5 0 -8 5 -8
11 0 10 -122 168 -161 209 -53 56 -240 270 -235 270 16 0 193 -113 274 -174
153 -117 159 -120 185 -109 13 6 50 60 91 134 38 68 111 186 163 263 52 76 97
144 100 152 10 27 -16 14 -45 -23z"/>
</g>
</svg>
